<svg xmlns="http://www.w3.org/2000/svg" version="1.1" xmlns:xlink="http://www.w3.org/1999/xlink" xmlns:svgjs="http://svgjs.com/svgjs" width="1000" height="1000"><rect width="1000" height="1000" rx="200" ry="200" fill="#e9e9e9"></rect><g transform="matrix(4.813477737665464,0,0,4.813477737665464,173.1972494867419,82.13381373913847)"><svg xmlns="http://www.w3.org/2000/svg" version="1.1" xmlns:xlink="http://www.w3.org/1999/xlink" xmlns:svgjs="http://svgjs.com/svgjs" width="135.78" height="166.2"><svg xmlns="http://www.w3.org/2000/svg" viewBox="0 0 135.78 166.2"><defs><style>.cls-1{fill:none;stroke:#231f20;stroke-miterlimit:10;stroke-width:3px;}</style></defs><g id="Layer_2" data-name="Layer 2"><g id="Layer_1-2" data-name="Layer 1"><path class="cls-1" d="M93,96.82c-.22-.13-.94,9.72-2.53,11.49a77.36,77.36,0,0,1-6.82,5.77l-.53,6.83c.56,1.19-1.63,6-2,6.15s-.56,4.9-.6,5.6a6.32,6.32,0,0,1-1.56,2.48c-.5.56-.47,8.58,0,9.37s-.2,8.33-.2,8.33c.61.18-1.6,3.52-1.6,3.52,1,7.25-2.69,8.14-2.69,8.14A17.61,17.61,0,0,0,68.88,163V120.77l.25,0c.5.1.3,15,.3,15,1.16,2,1.29,0,1.29,0-1.29-.5.22-2.19.22-2.19-1.92-2.26,1.66-1.59.4-2.14s1.21-2.21,1.21-2.21c-2-.69-1.54-2.09-1.54-2.09,4.83-1.55,1.95-3.48,1.95-3.48.56.49-1,1.65-1,1.65l.19-3.37c-1.59-1,0-1.62-.74-1.81-.45-.11.38-.86.83-1.28.48-.11,1.66-.53,1.92-.63,0,0,0,0,0,0h0c-.3-.19.83-8.11.83-8.11a4.89,4.89,0,0,1-1.2-2.43c3.43,4.56,3.5-1.88,3.5-1.88l1.07-.42c3-3.5.79,1,.79,1,1.32,1.86,2.38-.76,2.38-.76,1.24,1-1.07,3.45-1.07,3.45a2.89,2.89,0,0,0,2.73-2.33c.53-2.31,1,.1,1,.1.42.32,2.13-2.42,4.94-4.83s1.83-10,1.83-10C93.33,93.15,93.25,97,93,96.82Z"></path><path class="cls-1" d="M72.19,118.85c-.24.05-.3,0,0-.16S72.47,118.59,72.19,118.85Z"></path><path class="cls-1" d="M74.16,118.2s0,0,0,0Z"></path><path class="cls-1" d="M120.36,72.73c2,0-26.36,9.66-27.08,9.77s-1.61-.85-1.61-.85c-3.39,1.28-1.46,8.41-1.25,9.16C86,77.91,89.2,77.54,89.59,77.54h-.27c.3,0,.47-1.74.47-1.74,1.46,1.89,2.59,1.2,2.59,1.2,1.49.79.11-4.28-.44-6.13.86,1.89,4.1,4.91,4.21,5-1.69-5.13-.56-4.22-.56-4.22.79,2.47,1.81,2.25,1.81,2.25-1-.25-1.15-6-1.15-6a6.64,6.64,0,0,1-2-3c44.23-.28,32.52-53.43,32.38-54C147.72,51.68,118.33,72.7,120.36,72.73Z"></path><path class="cls-1" d="M42.76,97c.22-.14.94,9.71,2.53,11.48a76.17,76.17,0,0,0,6.82,5.78l.53,6.82c-.56,1.2,1.63,6,2,6.15s.56,4.91.6,5.6a6.25,6.25,0,0,0,1.56,2.48c.5.56.47,8.58,0,9.38s.2,8.32.2,8.32c-.61.18,1.6,3.53,1.6,3.53-1,7.24,2.69,8.13,2.69,8.13a18.2,18.2,0,0,1,5.53-1.49V120.91a.71.71,0,0,0-.25,0c-.5.09-.3,14.95-.3,14.95-1.16,2-1.29,0-1.29,0,1.29-.51-.22-2.19-.22-2.19,1.92-2.27-1.66-1.6-.4-2.14s-1.21-2.22-1.21-2.22c2.05-.69,1.54-2.08,1.54-2.08-4.83-1.55-1.95-3.48-1.95-3.48-.56.49,1,1.65,1,1.65l-.19-3.37c1.59-1,0-1.62.74-1.81.46-.12-.38-.87-.83-1.28-.48-.11-1.66-.54-1.92-.63,0,0,0,0-.05,0l.05,0c.3-.2-.83-8.12-.83-8.12a4.84,4.84,0,0,0,1.2-2.42c-3.43,4.56-3.5-1.88-3.5-1.88l-1.07-.42c-3-3.51-.79,1-.79,1-1.32,1.86-2.38-.75-2.38-.75-1.24,1,1.07,3.44,1.07,3.44a2.89,2.89,0,0,1-2.73-2.32c-.53-2.32-1,.1-1,.1-.42.31-2.13-2.42-4.94-4.84s-1.83-10-1.83-10C42.45,93.28,42.53,97.09,42.76,97Z"></path><path class="cls-1" d="M15.42,72.86c-2,0,26.36,9.66,27.08,9.77s1.61-.84,1.61-.84c3.39,1.28,1.46,8.4,1.25,9.15,4.47-12.89,1.22-13.27.83-13.27h.27c-.3,0-.47-1.73-.47-1.73-1.46,1.89-2.59,1.2-2.59,1.2-1.49.78-.11-4.28.44-6.13-.86,1.89-4.1,4.91-4.21,5,1.69-5.12.56-4.22.56-4.22C39.4,74.26,38.38,74,38.38,74c1-.24,1.15-6,1.15-6a6.64,6.64,0,0,0,2-2.95C-2.69,64.83,9,11.68,9.16,11.08-11.93,51.82,17.45,72.83,15.42,72.86Z"></path></g></g></svg></svg></g></svg>