<svg xmlns="http://www.w3.org/2000/svg" viewBox="0 0 489.5 236.17"><defs><style>.cls-1{fill:none;stroke:#231f20;stroke-miterlimit:10;stroke-width:3px;}</style></defs><g id="Layer_2" data-name="Layer 2"><g id="Layer_1-2" data-name="Layer 1"><path class="cls-1" d="M129.67,131.21c-.31-.19-1.32,13.61-3.54,16.09s-9.55,8.09-9.55,8.09l-.75,9.56c.79,1.67-2.28,8.37-2.87,8.61s-.78,6.86-.84,7.84-1.47,2.68-2.18,3.47-.66,12,0,13.13-.28,11.66-.28,11.66c.85.26-2.25,4.94-2.25,4.94,1.38,10.14-3.76,11.39-3.76,11.39a25.23,25.23,0,0,0-7.74-2.09V164.75l.35,0c.69.14.41,20.94.41,20.94,1.62,2.78,1.82,0,1.82,0-1.81-.71.3-3.07.3-3.07-2.69-3.17,2.32-2.24.56-3s1.69-3.1,1.69-3.1c-2.87-1-2.16-2.92-2.16-2.92,6.76-2.17,2.73-4.87,2.73-4.87.8.68-1.47,2.31-1.47,2.31l.27-4.72c-2.23-1.38,0-2.27-1-2.53-.63-.16.54-1.22,1.17-1.8.66-.15,2.33-.75,2.69-.88,0,0,0,0,.06,0l-.06,0c-.43-.28,1.16-11.37,1.16-11.37a6.83,6.83,0,0,1-1.68-3.39c4.8,6.39,4.9-2.64,4.9-2.64l1.5-.58c4.17-4.91,1.11,1.36,1.11,1.36,1.84,2.6,3.33-1.05,3.33-1.05,1.74,1.43-1.5,4.82-1.5,4.82a4.06,4.06,0,0,0,3.83-3.26c.73-3.24,1.39.15,1.39.15.58.43,3-3.4,6.91-6.77s2.57-14.08,2.57-14.08C130.11,126.06,130,131.4,129.67,131.21Z"/><path class="cls-1" d="M100.5,162.06c-.33.07-.42,0,0-.22S100.89,161.7,100.5,162.06Z"/><path class="cls-1" d="M103.25,161.15s0,0-.06,0Z"/><path class="cls-1" d="M168,97.47c2.85,0-36.92,13.53-37.92,13.68s-2.26-1.18-2.26-1.18c-4.75,1.79-2,11.77-1.75,12.82-6.27-18.06-1.71-18.59-1.17-18.59h-.37c.42,0,.66-2.43.66-2.43,2,2.65,3.62,1.68,3.62,1.68,2.09,1.1.16-6-.61-8.58,1.2,2.64,5.74,6.87,5.9,7-2.37-7.18-.79-5.91-.79-5.91,1.11,3.46,2.54,3.15,2.54,3.15-1.43-.34-1.62-8.37-1.62-8.37a9.37,9.37,0,0,1-2.81-4.13c61.94-.39,45.54-74.83,45.35-75.68C206.27,68,165.11,97.43,168,97.47Z"/><path class="cls-1" d="M59.28,131.4c.32-.19,1.32,13.61,3.54,16.09s9.55,8.08,9.55,8.08l.75,9.56c-.78,1.67,2.28,8.38,2.88,8.62s.77,6.86.83,7.84,1.47,2.68,2.18,3.47.67,12,0,13.13.28,11.66.28,11.66c-.85.25,2.24,4.93,2.24,4.93-1.38,10.15,3.76,11.39,3.76,11.39a25.55,25.55,0,0,1,7.75-2.08V164.94a2.19,2.19,0,0,0-.36,0c-.69.14-.41,20.93-.41,20.93-1.62,2.79-1.81,0-1.81,0,1.81-.7-.3-3.06-.3-3.06,2.69-3.17-2.33-2.24-.57-3s-1.69-3.1-1.69-3.1c2.87-1,2.16-2.92,2.16-2.92-6.76-2.17-2.73-4.87-2.73-4.87-.79.68,1.47,2.31,1.47,2.31l-.27-4.72c2.23-1.39,0-2.27,1-2.54.63-.16-.54-1.21-1.17-1.79-.66-.15-2.33-.75-2.69-.88,0,0,0,0-.06,0l.06,0c.43-.28-1.16-11.37-1.16-11.37a6.84,6.84,0,0,0,1.68-3.4c-4.79,6.39-4.9-2.63-4.9-2.63l-1.5-.59c-4.17-4.91-1.11,1.37-1.11,1.37-1.84,2.6-3.32-1.06-3.32-1.06-1.75,1.44,1.49,4.83,1.49,4.83a4.06,4.06,0,0,1-3.83-3.26c-.73-3.24-1.38.14-1.38.14-.59.44-3-3.39-6.92-6.77s-2.56-14.07-2.56-14.07C58.85,126.25,59,131.59,59.28,131.4Z"/><path class="cls-1" d="M21,97.66c-2.85,0,36.92,13.53,37.93,13.68s2.26-1.18,2.26-1.18c4.74,1.79,2,11.76,1.74,12.82,6.27-18.06,1.71-18.59,1.17-18.59h.37c-.42,0-.66-2.43-.66-2.43-2,2.65-3.62,1.68-3.62,1.68-2.09,1.1-.16-6,.61-8.58-1.2,2.64-5.74,6.87-5.9,7,2.38-7.18.79-5.91.79-5.91-1.1,3.46-2.53,3.15-2.53,3.15,1.42-.35,1.61-8.37,1.61-8.37a9.27,9.27,0,0,0,2.81-4.13C-4.36,86.41,12,12,12.22,11.13-17.31,68.19,23.84,97.61,21,97.66Z"/><path d="M489.5,75.89c-10.87,7.91-30.41,23.37-36.18,1.42-1.55-20-11.48-21.86-29.09-16.42-3.76,12.39,20.26,1.48,23.74,8.25-3,8.21-12.68,9-19.91,9.63C424.6,81,412.38,85,412.8,77.92c.47-1.11-.31-1.52-1.24-1.34-5.38,3.47-27.51,13.25-21.29-1,1.13-5.45-10.95,5.64-13.06,5.81-3.77,1.53-13.31,6.79-13.52-.59,2.91-2.83,13.07-9.34,5.43-13-6.45,1-6,10.8-12.19,12-17.76-2.43-40.3,41.94-35.27,2.19,3.49-19.09,20.87-31.37,27.54-49.47-1.66-11.91-12.27,3.39-14.3,8.3C329,50.37,327,61.74,321.58,71.15,312.88,78.09,299.69,102.52,288,94c-.24-4.29,4.66-4.36,5.69-7.27.65-8-4-4.9-5.71.27-13.14,3.81-27.61,6.85-39,16.06-29.09,29.42,46.8-81.44,38.5-84.48-6,1.46-11.52,5.47-17.73,5.72-3.07-.47-5-1.15-7.56,1.38-7,14.93-20.8,27-28.59,41.24-8.87,11.38-31,56.61-18.22,22.45-.08-7.89,41-80.47,26.06-70.22-13.42,8.17-22.67,22.63-35.35,31.26C196,70.21,238.42,17,242.36,22.46c-6.55,16.35-15.22,31.72-21.83,48.3-6.38,12.57-25.08,67-2.48,25.49,12.1-25.47,31.44-45.9,46.82-69.52,31.83-6.32,20.47-9.46,6.69,22.14l.11,0c-9.58,17-17.34,33-27.77,49.83-11.21,23.51-36.47,37.24-46.16,62-2,3.47-1.63,7.75,2.65,6.44,1.58-1.11.2-1.36-1-2.2.52-2.77,1.06-6.34,3.57-8.25,5-13.76,18.84-27.44,29.13-36.65-14.35,20.79-22.67,47.19-37.19,67.69-3.5,15.06-20.38,30.92-20.16,48.43,13-30.25,29.67-58.76,44.28-88.41,13.07-30.22,33.63-53.76,67.33-57.54-2.17,4.42,1.19,6.41,3.4,9.07,12.84-1.06,25.82-21.47,31.87-24.72-2.67,8.42-4.44,17-1.64,25.65,11.72,4,21.68-21,40.92-18.87,4,12.13,18.22-.56,25.27-2.85-.88,3.66,3.06,7.57,6.9,7.17,6.17-.56,11.13-4.13,16.8-6.19,1.59,3.3,6,5.86,9.59,4.39C428.72,79,441,83,447.51,73.25c3.67,10.08,12,23.54,24.63,16C477.52,85.77,488.75,82.11,489.5,75.89ZM329.18,59.06c4.54-9.49,7.86-24.27,18.11-28.33C346.36,37.47,328.86,64.9,329.18,59.06ZM292.33,85.51c.75.49-.7,1.14-1,1.43C290.66,86.36,292,86,292.33,85.51ZM364.7,74.3c.66-1.16,4.4-4.44,4.9-2.52C369.05,75.18,361.2,80.78,364.7,74.3Zm80.85-9.52c-6.33.15-13.73,1.8-19.52-1.24,4.61-4,18.17-3.76,22,1.68Z"/></g></g></svg>