<?xml version="1.0" standalone="no"?>
<!DOCTYPE svg PUBLIC "-//W3C//DTD SVG 20010904//EN"
 "http://www.w3.org/TR/2001/REC-SVG-20010904/DTD/svg10.dtd">
<svg version="1.0" xmlns="http://www.w3.org/2000/svg"
 width="700.000000pt" height="700.000000pt" viewBox="0 0 700.000000 700.000000"
 preserveAspectRatio="xMidYMid meet">
<metadata>
Created by potrace 1.14, written by Peter Selinger 2001-2017
</metadata>
<g transform="translate(0.000000,700.000000) scale(0.100000,-0.100000)"
fill="#000000" stroke="none">
<path d="M1538 6192 c-75 -147 -158 -320 -183 -385 -190 -487 -189 -961 5
-1374 59 -126 129 -236 227 -358 49 -60 92 -118 96 -128 8 -22 68 -49 294
-130 387 -140 658 -228 693 -225 l35 3 -1 -85 c-1 -121 -6 -147 -30 -161 -12
-6 -32 -30 -45 -53 -20 -34 -24 -54 -23 -116 1 -92 39 -315 65 -387 20 -52 31
-63 222 -225 26 -22 28 -28 33 -138 6 -120 30 -229 65 -289 12 -20 22 -60 25
-100 8 -107 13 -127 41 -167 25 -37 27 -45 26 -144 -8 -495 -8 -481 21 -537
19 -38 26 -68 26 -110 1 -124 41 -211 111 -242 39 -18 41 -18 104 5 36 13 99
26 142 30 68 6 88 3 157 -20 89 -30 112 -27 159 22 40 41 59 99 65 192 3 62
11 98 28 132 22 43 24 61 26 205 1 87 -2 213 -7 281 l-8 123 35 67 c30 57 36
80 40 152 4 60 12 95 26 120 32 55 53 130 58 200 12 201 13 206 46 230 79 58
190 165 207 198 33 65 88 389 76 451 -9 47 -31 88 -63 118 -30 28 -31 31 -39
145 -7 107 -3 121 33 108 28 -11 177 35 641 201 292 104 326 119 355 162 13
19 51 69 85 110 374 450 476 1015 287 1599 -53 165 -105 281 -236 536 -66 127
-121 232 -122 232 -2 0 21 -99 50 -221 74 -303 88 -415 87 -684 0 -178 -4
-242 -21 -336 -84 -461 -299 -736 -668 -852 -102 -32 -266 -57 -378 -57 -47 0
-86 -2 -86 -5 0 -18 45 -117 65 -145 30 -41 32 -71 5 -95 -17 -16 -20 -16 -26
-2 -5 14 -10 14 -45 2 -59 -21 -58 -20 -42 -81 8 -31 12 -58 10 -61 -3 -2 -23
19 -46 48 -22 28 -41 48 -41 43 -3 -65 -22 -147 -40 -171 -47 -65 -35 -213 36
-420 27 -82 34 -116 34 -180 0 -123 -17 -166 -97 -244 -87 -85 -122 -94 -177
-43 -45 41 -66 42 -108 5 -18 -15 -43 -31 -55 -35 -16 -5 -24 -18 -28 -44 -4
-20 -8 -41 -9 -46 -1 -5 -33 32 -70 83 -37 50 -69 91 -71 91 -1 0 4 -33 11
-72 8 -40 17 -91 21 -113 3 -22 13 -55 23 -74 13 -26 15 -45 9 -85 -4 -28 -10
-76 -14 -108 -5 -49 -9 -57 -31 -62 -14 -4 -33 -20 -43 -38 -18 -29 -23 -31
-87 -34 -66 -3 -69 -2 -102 32 -18 19 -39 34 -47 34 -8 0 -15 1 -15 3 -27 201
-28 222 -15 248 14 26 60 248 53 254 -2 3 -33 -34 -68 -80 -35 -46 -67 -82
-72 -79 -4 3 -8 21 -8 40 0 28 -5 37 -27 46 -16 7 -43 25 -61 40 -18 15 -39
28 -47 28 -7 0 -30 -15 -50 -34 -29 -28 -43 -34 -74 -32 -34 2 -48 11 -110 75
-46 47 -74 85 -81 109 -16 57 -13 242 4 261 17 19 52 135 72 237 22 117 19
163 -16 229 -16 31 -30 73 -31 94 -1 20 -4 47 -8 60 -6 23 -8 22 -46 -28 -22
-28 -41 -48 -43 -42 -2 5 3 34 11 64 l15 55 -45 17 c-30 12 -47 14 -56 7 -17
-15 -47 10 -47 38 0 13 11 38 25 55 24 32 68 135 61 143 -2 2 -69 7 -147 12
-201 12 -320 40 -462 112 -280 139 -448 394 -519 788 -17 93 -21 157 -22 340
0 284 14 392 94 694 34 125 60 230 58 232 -2 2 -65 -117 -140 -264z m-89
-1023 c73 -416 265 -705 570 -858 130 -66 340 -121 459 -121 43 0 44 -1 29
-18 -12 -13 -17 -38 -18 -78 -3 -116 -3 -116 -99 -140 l-85 -21 40 -11 c22 -6
66 -16 98 -23 33 -7 56 -17 54 -23 -2 -6 -12 -35 -21 -63 -10 -29 -21 -53 -25
-53 -9 0 -456 156 -575 201 -86 33 -91 37 -160 117 -196 230 -319 467 -370
715 -52 252 -39 493 42 792 l27 100 7 -200 c4 -127 14 -242 27 -316z m4201
270 c100 -486 -12 -925 -339 -1323 l-94 -115 -161 -60 c-88 -32 -241 -86 -338
-119 l-177 -61 -20 61 c-12 34 -19 63 -17 65 2 2 41 10 87 19 46 8 91 18 99
21 8 3 -25 15 -75 27 -102 24 -101 24 -104 140 -1 38 -7 66 -16 76 -15 16 -9
18 82 30 656 82 998 543 1004 1354 l1 131 24 -75 c13 -41 33 -118 44 -171z
m-2986 -1664 c19 -4 43 -4 54 -1 24 8 52 -26 52 -61 0 -28 3 -28 -45 -3 -39
20 -40 20 -58 1 -19 -18 -21 -18 -98 7 -43 15 -79 29 -78 32 0 3 23 24 52 47
l51 41 18 -28 c11 -20 28 -31 52 -35z m1796 24 c27 -23 48 -45 45 -48 -2 -4
-38 -18 -79 -31 -73 -23 -76 -23 -95 -5 -20 17 -22 17 -61 -3 l-40 -19 0 28
c0 41 24 59 80 59 43 0 52 4 72 30 12 17 23 30 26 30 2 0 25 -19 52 -41z
m-215 -921 c-17 -69 -31 -84 -187 -209 l-76 -61 -7 -97 c-14 -198 -22 -240
-54 -306 -26 -51 -34 -83 -40 -158 -7 -81 -12 -99 -36 -131 -27 -36 -29 -45
-33 -154 -3 -65 1 -151 7 -196 18 -117 2 -296 -30 -351 -20 -33 -24 -54 -24
-125 -1 -61 -6 -94 -18 -117 -10 -18 -20 -33 -23 -33 -3 0 -37 9 -75 21 l-69
21 0 392 0 393 24 11 c25 11 52 72 43 96 -3 8 1 23 9 34 9 13 11 23 4 27 -6 4
-4 15 5 29 9 13 13 30 10 37 -4 10 12 27 42 48 l48 34 -35 16 c-19 8 -36 16
-38 17 -2 1 11 15 28 32 19 20 30 41 30 59 0 32 -34 93 -51 93 -6 0 -9 9 -6
20 3 11 1 23 -4 26 -20 12 -7 33 29 45 20 7 52 19 71 26 l35 15 -32 20 c-18
11 -32 21 -32 22 0 11 22 178 26 199 6 27 6 27 84 27 91 0 118 8 161 50 18 16
37 30 44 30 7 0 50 41 96 91 46 51 85 87 87 81 2 -6 -4 -39 -13 -74z m-1311
-108 c7 0 21 -9 32 -21 32 -36 67 -47 154 -53 97 -5 93 0 105 -128 8 -91 14
-115 25 -98 12 19 33 -27 26 -56 -5 -19 -2 -25 19 -30 25 -6 33 -28 15 -39 -5
-3 -10 -15 -10 -25 0 -10 -11 -31 -25 -46 -36 -39 -34 -89 6 -130 l31 -32 -43
-14 -43 -14 46 -32 c45 -31 54 -49 61 -119 1 -12 5 -25 10 -29 4 -4 7 -25 7
-46 0 -31 7 -46 30 -70 l30 -30 0 -391 0 -392 -66 -21 -65 -20 -19 23 c-22 28
-34 108 -25 162 5 32 1 48 -25 94 l-31 55 1 154 c1 84 2 218 3 298 l2 145 -31
47 c-27 41 -32 58 -37 136 -4 63 -11 98 -26 123 -32 54 -50 115 -55 182 -3 34
-8 104 -12 154 l-7 93 -92 75 c-129 104 -161 142 -174 204 -6 29 -11 57 -11
64 0 7 41 -30 91 -80 50 -51 96 -93 103 -93z m210 -6 c5 -14 4 -15 -9 -4 -17
14 -19 20 -6 20 5 0 12 -7 15 -16z m718 -6 c-7 -7 -12 -8 -12 -2 0 6 3 14 7
17 3 4 9 5 12 2 2 -3 -1 -11 -7 -17z"/>
</g>
</svg>
